<?xml version="1.0" encoding="utf-8"?>
<!-- Generator: Adobe Illustrator 26.3.1, SVG Export Plug-In . SVG Version: 6.00 Build 0)  -->
<svg version="1.1" id="Layer_1" xmlns="http://www.w3.org/2000/svg" xmlns:xlink="http://www.w3.org/1999/xlink" x="0px" y="0px"
	 viewBox="0 0 360 360" style="enable-background:new 0 0 360 360;" xml:space="preserve">
<style type="text/css">
	.st0{fill:#479EDB;}
	.st1{fill:#FFFFFF;}
</style>
<circle class="st0" cx="179.70802" cy="179.70802" r="177.5477"/>
<g>
	<path class="st1" d="M78.40687,133.63881c0-1.82903,0.68656-3.43279,2.05968-4.80591
		c1.37312-1.37311,2.9715-2.05967,4.8059-2.05967h35.701c1.14247,0,2.28495-0.45592,3.43279-1.37312l51.14855-41.19346
		c3.20215-2.74622,6.52229-3.31478,9.95508-1.71639c3.43279,1.60376,5.14919,4.58063,5.14919,8.92525v177.13188
		c0,4.34998-1.7164,7.32684-5.14919,8.92523s-6.75293,1.02985-9.95508-1.7164l-51.14855-41.19345
		c-1.14783-0.91183-2.29031-1.37311-3.43279-1.37311h-35.701c-1.8344,0-3.43279-0.68655-4.8059-2.05968
		c-1.37312-1.37311-2.05968-2.97151-2.05968-4.80591V133.63881z M211.59904,221.17491
		c-1.37311-1.37312-1.94704-3.08951-1.71638-5.14919c0.22527-2.05968,1.37311-3.43279,3.43279-4.11935
		c10.06772-3.43279,16.93285-10.06772,20.59628-19.91017c3.65807-9.83708,3.60442-19.67952-0.17165-29.52197
		c-3.77606-9.83708-10.58755-16.47739-20.42464-19.91017c-2.05968-0.68655-3.20752-2.00067-3.43279-3.94771
		c-0.23065-1.94167,0.39691-3.65807,1.88803-5.14919c1.48575-1.48575,3.26114-1.88803,5.32082-1.20146
		c13.26942,4.34998,22.36632,12.93195,27.29022,25.74591c4.91853,12.81931,4.91853,25.57426,0,38.27557
		c-4.9239,12.70132-14.0208,21.3423-27.29022,25.91756C214.80119,222.8913,212.97217,222.54802,211.59904,221.17491z
		 M211.59904,257.90573c-1.37311-1.59839-1.8344-3.43279-1.37311-5.49245c0.45592-2.05968,1.82903-3.31479,4.11934-3.77608
		c23.79843-5.71773,40.21681-19.05197,49.26007-39.99197c9.03787-20.94002,9.03787-41.93365,0-62.99167
		c-9.04326-21.05264-25.46164-34.32788-49.26007-39.82034c-2.29031-0.45592-3.66342-1.7164-4.11934-3.77607
		c-0.46129-2.05968,0.05363-3.8887,1.54475-5.49246c1.48575-1.59839,3.26114-2.17231,5.32082-1.71639
		c27.23122,6.40966,46.11156,21.74457,56.64055,45.99937c10.52365,24.26015,10.64166,48.4613,0.34329,72.60345
		c-10.29837,24.14752-29.29671,39.53607-56.98384,46.17101C214.80119,260.0834,212.97217,259.50949,211.59904,257.90573z"/>
</g>
</svg>
